<svg width="1280" height="640" xmlns="http://www.w3.org/2000/svg">
  <defs>
    <linearGradient id="bg" x1="0" y1="0" x2="1" y2="1">
      <stop offset="0%" stop-color="#0f1115"/>
      <stop offset="100%" stop-color="#1c2333"/>
    </linearGradient>
  </defs>
  <rect width="1280" height="640" fill="url(#bg)"/>
  <path d="M0 400 Q 400 360 700 400 T 1280 390" stroke="#334155" stroke-width="2" fill="none" opacity="0.4"/>
  <path d="M0 460 Q 500 440 800 470 T 1280 450" stroke="#f59e0b" stroke-width="2" fill="none" opacity="0.3"/>
  <circle cx="1020" cy="160" r="160" fill="#f59e0b" opacity="0.07"/>
  <rect x="80" y="80" width="96" height="96" rx="20" fill="#1e293b" stroke="#38bdf8" stroke-width="2"/>
  <text x="128" y="145" text-anchor="middle" font-family="monospace" font-size="48" fill="#38bdf8">◐</text>
  <text x="220" y="145" font-family="Inter, system-ui, sans-serif" font-size="54" font-weight="800" fill="#f8fafc">smart-apple-dev</text>
  <text x="220" y="185" font-family="Inter, system-ui, sans-serif" font-size="19" fill="#94a3b8">Build, sign &amp; ship iOS/macOS apps from Linux &amp; Windows</text>
  <rect x="220" y="210" width="320" height="30" rx="15" fill="none" stroke="#334155" stroke-width="1.5"/>
  <text x="380" y="230" text-anchor="middle" font-family="monospace" font-size="12" fill="#94a3b8">CLANG + LLD + SDK  •  21 LLM PROVIDERS  •  12 BUILD PROVIDERS</text>
  <text x="80" y="315" font-family="system-ui, sans-serif" font-size="21" fill="#e2e8f0">Cross-platform Apple toolchain — no Mac required.</text>
  <text x="80" y="345" font-family="system-ui, sans-serif" font-size="21" fill="#e2e8f0">MIT, self-hostable, agent-powered.</text>
  <text x="80" y="385" font-family="monospace" font-size="13" fill="#64748b">pip install smart-apple-dev  •  Swift / ObjC / Rust / Go / Kotlin</text>
  <circle cx="80" cy="530" r="6" fill="#38bdf8" opacity="0.9"/><circle cx="100" cy="530" r="6" fill="#f59e0b" opacity="0.7"/><circle cx="120" cy="530" r="6" fill="#22c55e" opacity="0.6"/>
  <text x="140" y="535" font-family="monospace" font-size="11" fill="#475569">LINUX • WSL • MACOS  •  LOCAL-FIRST</text>
  <text x="1050" y="600" font-family="monospace" font-size="11" fill="#334155">github.com/realstreetsmartnyc/smart-apple-dev</text>
</svg>